<?xml version="1.0" encoding="UTF-8"?>
<svg id="Layer_1" xmlns="http://www.w3.org/2000/svg" version="1.1" viewBox="0 0 582.83 184.71">
  <!-- Generator: Adobe Illustrator 29.8.2, SVG Export Plug-In . SVG Version: 2.1.1 Build 3)  -->
  <defs>
    <style>
      .st0 {
        fill: #347368;
      }

      .st1 {
        fill: #1ca778;
      }

      .st2 {
        fill: #fff;
        stroke: #fff;
        stroke-miterlimit: 10;
        stroke-width: 1.5px;
      }
    </style>
  </defs>
  <path class="st1" d="M311.81,94.3h-23.3c-.57-2.65-.86-5.56-.86-8.71-4.41,6.66-11.1,9.99-20.05,9.99-7.36,0-12.86-1.88-16.52-5.64-3.66-3.76-5.49-8.07-5.49-12.94,0-6.58,2.99-11.9,8.98-15.97,5.99-4.07,16.6-6.51,31.85-7.33v-1.41c0-2.74-.62-4.56-1.87-5.45-1.25-.9-3.08-1.35-5.49-1.35-5.64,0-8.79,2.27-9.44,6.8l-22.32-2.08c3.19-13.04,14.04-19.56,32.56-19.56,5.03,0,9.65.5,13.86,1.5s7.54,2.56,9.99,4.69c2.45,2.13,4.1,4.37,4.93,6.74.84,2.37,1.26,6.93,1.26,13.67v24.89c0,4.74.63,8.79,1.9,12.14M286.43,65.11c-10.42,1.1-15.63,4.43-15.63,9.99,0,3.76,2.06,5.64,6.19,5.64,2.61,0,4.84-.78,6.68-2.33,1.84-1.55,2.76-4.99,2.76-10.3v-3Z"/>
  <path class="st1" d="M15,94.3V10.61h32.37c14.06,0,24.58,4.17,31.58,12.51,6.99,8.34,10.48,17.99,10.48,28.94,0,12.51-3.75,22.68-11.25,30.5-7.5,7.83-17.24,11.74-29.21,11.74H15ZM40.69,75.04h6.68c4.25,0,7.84-2.07,10.76-6.19,2.92-4.13,4.38-9.75,4.38-16.86,0-6.09-1.3-11.34-3.89-15.76-2.6-4.41-6.35-6.62-11.25-6.62h-6.68v45.43Z"/>
  <path class="st1" d="M137.65,71.92l22.81,1.53c-1.35,6.13-4.79,11.35-10.33,15.67-5.54,4.31-13.03,6.47-22.47,6.47-10.5,0-18.88-3.03-25.14-9.1-6.25-6.07-9.38-13.6-9.38-22.6s3.08-17.19,9.26-23.6c6.17-6.42,14.41-9.63,24.71-9.63s18.03,3.03,24.19,9.08c6.15,6.05,9.23,14.28,9.23,24.71,0,.86-.02,2.04-.06,3.56h-41.75c.08,3.92.78,6.84,2.08,8.73,1.31,1.9,3.8,2.85,7.48,2.85,5.31,0,8.44-2.55,9.38-7.66M136,55.73c-.04-4.21-.89-7.04-2.54-8.49-1.65-1.45-3.7-2.18-6.14-2.18-5.78,0-8.67,3.56-8.67,10.67h17.35Z"/>
  <rect class="st1" x="165.45" y="10.61" width="24.1" height="83.69"/>
  <path class="st1" d="M239.83,31.94v15.88h-12.45v22.99c0,3.15.59,5.02,1.78,5.61,1.19.59,2.41.89,3.68.89,1.96,0,4.29-.35,6.99-1.04v17.41c-4.82.94-9.56,1.41-14.22,1.41-7.52,0-13.05-1.62-16.59-4.84-3.53-3.23-5.3-8.38-5.3-15.45l.06-7.3v-19.68h-9.32v-15.88h9.32l.37-20.3,23.24-.37v20.66h12.45Z"/>
  <rect class="st0" x="365.57" y="71.68" width="24.1" height="83.69"/>
  <path class="st0" d="M458.61,93.02l-24.46,67.57c-1.88,5.11-4.58,9.1-8.09,11.99-3.52,2.88-8.93,4.32-16.25,4.32-1.76,0-5.85-.18-12.26-.55v-17.35c3.19.49,6.13.74,8.83.74,7.03,0,10.54-1.56,10.54-4.66,0-1.02-.35-2.43-1.04-4.23l-22.38-57.82h26.17l10.31,33.27,10.76-33.27h17.87Z"/>
  <path class="st0" d="M499.93,133l22.81,1.53c-1.35,6.13-4.79,11.35-10.33,15.67-5.54,4.31-13.03,6.47-22.47,6.47-10.5,0-18.88-3.03-25.14-9.1-6.25-6.07-9.38-13.6-9.38-22.59s3.08-17.19,9.26-23.6c6.17-6.42,14.41-9.63,24.71-9.63s18.03,3.03,24.19,9.08c6.15,6.05,9.23,14.28,9.23,24.71,0,.86-.02,2.04-.06,3.56h-41.75c.08,3.92.78,6.84,2.08,8.74,1.31,1.9,3.8,2.85,7.48,2.85,5.31,0,8.44-2.55,9.38-7.66M498.27,116.81c-.04-4.21-.89-7.04-2.54-8.49-1.65-1.45-3.7-2.17-6.14-2.17-5.78,0-8.67,3.56-8.67,10.67h17.35Z"/>
  <path class="st0" d="M550.35,155.37h-23.42v-62.35h20.36v12.87c2.33-9.36,7.75-14.04,16.25-14.04.86,0,2.04.08,3.56.25v21.77c-1.72-.41-3.25-.62-4.6-.62-8.09,0-12.14,4.52-12.14,13.55v28.57Z"/>
  <polygon class="st2" points="351.88 122.77 324.59 122.77 324.59 154.1 299.58 154.1 299.58 70.41 360.09 70.41 360.09 90.34 324.59 90.34 324.59 103.95 351.88 103.95 351.88 122.77"/>
  <polygon class="st0" points="354.25 124.04 326.97 124.04 326.97 155.37 301.96 155.37 301.96 71.68 362.47 71.68 362.47 91.61 326.97 91.61 326.97 105.22 354.25 105.22 354.25 124.04"/>
</svg>